# xmcd
#
# Track frame offsets: 
#        150
#        16127
#        41693
#        66871
#        84111
#        107952
#        133438
#        148294
#        161857
#        182214
#        195947
#        213325
#        228807
#
# Disc length: 3261 seconds
#
# Revision: 2
# Processed by: cddbd v1.5.2PL0 Copyright (c) Steve Scherf et al.
# Submitted via: ExactAudioCopyFreeDBPlugin 1.0
#
DISCID=b70cbb0d
DTITLE=The Word (John Medeski, Robert Randolph, and The North Mississipp
DTITLE=i Allstars) - Soul Food
DYEAR=2015
DGENRE=Blues
TTITLE0=New Word Order
TTITLE1=Come By Here
TTITLE2=When I See the Blood
TTITLE3=Play All Day
TTITLE4=Soul Food I
TTITLE5=Sourl Food II
TTITLE6=You Brought the Sunshine
TTITLE7=Early in the Moanin' Time
TTITLE8=Swanp Road
TTITLE9=Chocolate Cowboy
TTITLE10=The Highest
TTITLE11=Speaking in Tongues
TTITLE12=Glory Glory
EXTD=
EXTT0=
EXTT1=
EXTT2=
EXTT3=
EXTT4=
EXTT5=
EXTT6=
EXTT7=
EXTT8=
EXTT9=
EXTT10=
EXTT11=
EXTT12=
PLAYORDER=
